<svg width="41.000000" height="43.000000" viewBox="0 0 41 43" fill="none" xmlns="http://www.w3.org/2000/svg" xmlns:xlink="http://www.w3.org/1999/xlink">
	<desc>
			Created with Pixso.
	</desc>
	<defs/>
	<path id="Ellipse 7" d="M20.44 42.87C31.76 42.87 40.94 33.13 40.94 21.11C40.94 9.1 31.76 -0.64 20.44 -0.64C9.12 -0.64 -0.05 9.1 -0.05 21.11C-0.05 33.13 9.12 42.87 20.44 42.87ZM26.4 38.8Q23.63 39.87 20.44 39.87Q17.26 39.87 14.48 38.8Q10.98 37.46 8.13 34.44Q5.86 32.02 4.58 29.16Q2.95 25.5 2.95 21.11Q2.95 16.73 4.58 13.07Q5.86 10.21 8.13 7.79Q10.98 4.77 14.48 3.43Q17.26 2.36 20.44 2.36Q23.63 2.36 26.4 3.43Q29.9 4.77 32.75 7.79Q35.03 10.21 36.3 13.07Q37.94 16.73 37.94 21.11Q37.94 25.5 36.3 29.16Q35.03 32.02 32.75 34.44Q29.9 37.46 26.4 38.8Z" fill="#FFFFFF" fill-opacity="0.600000" fill-rule="evenodd"/>
	<path id="Polygon 1" d="M20.56 27.48L26.49 23.3C28.31 22.02 28.1 19.16 26.12 18.06L20.03 14.68C18.05 13.59 15.72 15.05 15.77 17.36L15.93 24.92C15.98 27.37 18.64 28.84 20.56 27.48Z" fill="#C4C4C4" fill-opacity="1.000000" fill-rule="evenodd"/>
</svg>
