<svg width="69.000000" height="14.035034" viewBox="0 0 69 14.035" fill="none" xmlns="http://www.w3.org/2000/svg" xmlns:xlink="http://www.w3.org/1999/xlink">
	<desc>
			Created with Pixso.
	</desc>
	<defs/>
	<path id="Star 1" d="M6.19232 0L4.80194 4.84875L0.303101 4.849L3.94263 7.84595L2.55255 12.6948L6.19232 9.69824L9.83203 12.6948L8.44202 7.84595L12.0815 4.849L7.5827 4.84875L6.19232 0Z" fill="#FFD600" fill-opacity="1.000000" fill-rule="nonzero"/>
	<path id="Star 2" d="M62.8077 0L61.4173 4.84875L56.9185 4.849L60.558 7.84595L59.1679 12.6948L62.8077 9.69824L66.4474 12.6948L65.0574 7.84595L68.6969 4.849L64.1981 4.84875L62.8077 0Z" fill="#FFD600" fill-opacity="1.000000" fill-rule="nonzero"/>
	<path id="Star 3" d="M48.6539 0L47.2635 4.84875L42.7646 4.849L46.4042 7.84595L45.0141 12.6948L48.6539 9.69824L52.2936 12.6948L50.9036 7.84595L54.5431 4.849L50.0443 4.84875L48.6539 0Z" fill="#FFD600" fill-opacity="1.000000" fill-rule="nonzero"/>
	<path id="Star 4" d="M34.5 0L33.1096 4.84875L28.6108 4.849L32.2503 7.84595L30.8602 12.6948L34.5 9.69824L38.1397 12.6948L36.7497 7.84595L40.3892 4.849L35.8904 4.84875L34.5 0Z" fill="#FFD600" fill-opacity="1.000000" fill-rule="nonzero"/>
	<path id="Star 5" d="M20.3462 0L18.9558 4.84875L14.457 4.849L18.0965 7.84595L16.7064 12.6948L20.3462 9.69824L23.9859 12.6948L22.5959 7.84595L26.2354 4.849L21.7366 4.84875L20.3462 0Z" fill="#FFD600" fill-opacity="1.000000" fill-rule="nonzero"/>
</svg>
